<svg width="471" height="512" viewBox="0 0 471 512" fill="none" xmlns="http://www.w3.org/2000/svg">
<path d="M254.147 0.000305776C250.018 -0.00956076 245.893 0.219355 241.791 0.685901C171.448 8.72358 104.834 67.0036 70.0523 134.318C70.1854 134.211 70.3162 134.1 70.4504 133.994L78.8658 127.343L85.0418 136.113C86.7941 138.603 88.2803 141.371 89.5895 144.39C98.5293 124.671 113.98 105.407 135.104 92.4246L143.685 87.1519L149.023 95.6902C151.844 100.204 153.883 105.503 155.465 111.495C166.616 92.7257 184.334 75.1269 207.063 64.5769L216.198 60.3371L220.507 69.4403C220.68 69.8046 220.843 70.1756 221.006 70.5477C232.036 55.7397 247.251 42.4304 265.804 33.8188L274.94 29.5767L279.25 38.6788C280.779 41.9083 281.901 45.4637 282.75 49.2965C292.256 37.2039 304.821 26.1262 319.749 18.0118C298.774 6.85399 276.449 0.0420271 254.147 0.00143278V0.000305776ZM412.575 22.3419C388.241 27.8559 366.478 43.1555 356.161 57.5958C350.143 66.0191 348.602 73.3994 349.612 77.2029C350.621 81.0075 353.51 84.7207 365.744 86.8215C370.012 87.5544 374.825 85.969 380.731 81.0774C386.639 76.1858 392.828 68.2405 398.049 59.2466C403.269 50.255 407.591 40.2293 410.395 31.338C411.427 28.0679 411.99 25.1925 412.575 22.3419V22.3419ZM332.44 34.4525C310.241 45.846 292.965 66.0789 286.563 82.6301C285.434 85.5529 284.681 88.2761 284.229 90.7546C284.078 92.2656 283.905 93.7767 283.711 95.2899C283.572 98.8002 284.137 101.535 285.098 103.249C287.021 106.682 290.741 109.56 303.112 108.552C307.428 108.2 311.696 105.469 316.202 99.2625C320.707 93.055 324.727 83.8198 327.546 73.8121C330.365 63.8034 332.056 53.0188 332.564 43.7092C332.749 40.2846 332.582 37.3606 332.44 34.4525V34.4525ZM263.488 58.3818C246.213 69.7121 232.955 86.7031 226.282 101.942C226.483 111.573 225.799 121.991 224.065 132.199C224.062 132.222 224.056 132.243 224.052 132.266C226.391 135.246 230.574 137.38 242.188 135.175C246.442 134.368 250.397 131.2 254.218 124.551C258.038 117.9 261.057 108.289 262.799 98.0379C264.54 87.7879 265.078 76.8815 264.593 67.5719C264.415 64.1473 263.938 61.2572 263.488 58.3818V58.3818ZM204.743 89.1433C183.879 102.827 168.848 124.776 164.239 141.914C161.551 151.912 162.691 159.362 164.968 162.572C167.245 165.782 171.248 168.25 183.444 165.935C187.698 165.128 191.653 161.958 195.473 155.309C199.295 148.659 202.312 139.05 204.054 128.798C205.795 118.548 206.333 107.643 205.848 98.3334C205.67 94.9077 205.193 92.0187 204.743 89.1433V89.1433ZM399.5 91.3027C397.659 93.209 395.715 95.014 393.677 96.7096C385.004 103.893 374.052 108.842 362.308 106.825C360.291 106.48 358.294 106.032 356.323 105.484C356.085 106.107 355.879 106.705 355.708 107.271C366.852 111.648 377.514 117.363 386.484 123.409C387.034 123.78 387.557 124.15 388.093 124.521C404.232 122.883 423.525 116.157 439.203 104.266C436.643 102.879 434.08 101.464 430.912 100.148C422.303 96.5732 411.846 93.4271 401.603 91.6353C400.9 91.5124 400.201 91.412 399.5 91.3027ZM135.656 117.091C116.523 133.107 104.144 156.656 101.559 174.214C100.052 184.457 102.05 191.724 104.685 194.647C107.319 197.571 111.584 199.555 123.426 195.839C127.558 194.542 131.116 190.936 134.138 183.886C137.16 176.838 139.044 166.943 139.581 156.559C140.119 146.176 139.385 135.282 137.822 126.091C137.246 122.71 136.438 119.895 135.657 117.091H135.656ZM324.59 120.018C319.072 124.783 312.441 128.158 304.76 128.784C303.885 128.855 303.021 128.894 302.161 128.929C297.465 135.429 297.704 139.195 299.016 142.191C300.594 145.797 306.395 150.611 316.348 153.456C333.412 158.334 359.97 156.758 382.447 145.922C380.214 144.055 377.982 142.158 375.137 140.239C367.407 135.03 357.783 129.873 348.099 126.085C339.881 122.872 331.599 120.699 324.59 120.019V120.018ZM422.305 137.137C417.34 139.096 412.251 140.722 407.07 142.006C407.196 142.191 407.329 142.374 407.453 142.559L413.034 150.941L404.693 156.586C381.676 172.168 354.403 177.994 330.841 176.384C332.17 178.398 333.335 180.434 334.286 182.513L338.472 191.672L329.345 195.93C308.97 205.433 286.854 208.196 266.965 206.096C270.714 211.916 273.528 217.548 274.988 223.206L277.505 232.958L267.774 235.551C249.164 240.506 230.161 240.37 213.017 236.738C215.722 241.366 217.782 245.903 218.957 250.456L221.475 260.208L211.742 262.801C192.168 268.012 172.16 267.589 154.337 263.393C157.946 269.589 160.543 275.444 161.566 281.455L163.358 291.991L152.743 293.235C119.674 297.116 87.1369 285.671 67.4532 269.352C62.8446 265.533 58.7513 261.331 55.7101 256.702C75.9949 323.446 126.431 396.049 126.431 396.049L86.4243 473.626C142.237 502.441 205.039 517.274 278.751 510.289C276.759 474.097 297.327 447.352 315.988 426.266C299.536 425.166 282.174 423.756 265.418 420.556C246.801 416.998 228.726 411.15 213.544 400.222C198.362 389.296 186.444 373.041 180.893 350.945L200.579 345.998C205.078 363.905 213.684 375.317 225.399 383.749C237.115 392.181 252.307 397.386 269.23 400.619C298.002 406.116 330.967 405.612 358.936 409.238C389.098 406.96 423.29 412.171 430.474 399.545C448.029 368.693 436.173 327.456 426.595 295.249C447.414 294.561 458.369 293.343 470.273 289.648C460.568 250.745 445.623 227.761 420.993 206.768C422.83 183.704 425.722 159.351 422.305 137.137V137.137ZM260.261 148.448C256.165 151.687 251.417 154.084 245.971 155.117C240.168 156.219 234.628 156.418 229.537 155.791C226.841 159.488 226.641 162.263 227.192 164.676C230.743 167.158 234.198 169.863 237.539 172.721C240.33 175.117 243.036 177.61 245.652 180.195C261.896 186.678 286.607 188.597 309.062 181.882C307.152 179.687 305.248 177.462 302.743 175.119C295.933 168.752 287.242 162.14 278.279 156.87C272.204 153.299 265.991 150.391 260.261 148.448ZM73.1973 159.531C59.4809 175.227 51.3056 196.244 50.4374 211.644C49.9074 221.051 52.3013 227.516 54.3818 229.591C56.4634 231.666 58.9949 233.047 68.4421 228.899C71.2386 227.672 73.9922 224.386 76.031 217.795C78.0697 211.204 78.9515 202.053 78.6471 192.571C78.3449 183.089 76.9195 173.24 74.9169 165.016C74.4117 162.942 73.7825 161.374 73.1973 159.531V159.531ZM205.675 175.428C200.75 180.57 194.627 184.471 187.23 185.876C182.134 186.843 177.238 187.122 172.674 186.755C172.679 186.913 172.685 187.07 172.696 187.226C172.888 189.7 174.513 193.183 177.808 196.912C179.055 197.911 180.29 198.93 181.508 199.972C183.023 201.275 184.513 202.607 185.976 203.968C200.586 213.964 225.809 220.972 250.264 218.165C248.769 215.668 247.285 213.142 245.229 210.397C239.642 202.935 232.248 194.904 224.346 188.144C218.174 182.864 211.661 178.405 205.675 175.428V175.428ZM147.395 201.605C143.011 207.781 137.137 212.812 129.505 215.207C125.397 216.497 121.368 217.301 117.5 217.631C119.068 221.414 122.86 226.257 129.334 230.813C143.846 241.027 169.444 248.262 194.234 245.416C192.738 242.918 191.255 240.392 189.199 237.646C183.611 230.185 176.214 222.153 168.313 215.394C161.361 209.447 153.97 204.518 147.396 201.605H147.395ZM92.5845 231.077C89.2219 238.068 84.1318 244.18 76.6015 247.485C76.0332 247.735 75.4626 247.953 74.8932 248.178C76.5426 250.206 78.3897 252.065 80.4073 253.726C92.3307 263.611 114.175 272.374 136.398 273.406C135.59 271.943 135.036 270.659 134.047 269.121C129.608 262.225 123.543 254.602 116.899 247.996C110.255 241.39 102.974 235.82 96.5864 232.736C95.2863 232.105 93.95 231.551 92.5845 231.078V231.077ZM37.6964 241.294L0 265.42L10.9424 282.517L54.4585 254.667C53.7043 253.346 53.0387 251.978 52.4659 250.569C47.6905 249.509 43.4202 247.326 40.0486 243.963C39.2123 243.121 38.4268 242.23 37.6964 241.294V241.294Z" fill="black"/>
</svg>
