<svg width="42" height="56" viewBox="0 0 42 56" fill="none" xmlns="http://www.w3.org/2000/svg">
<path d="M36.75 18.375H34.125V13.125C34.125 5.88 28.245 0 21 0C13.755 0 7.875 5.88 7.875 13.125V18.375H5.25C2.3625 18.375 0 20.7375 0 23.625V49.875C0 52.7625 2.3625 55.125 5.25 55.125H36.75C39.6375 55.125 42 52.7625 42 49.875V23.625C42 20.7375 39.6375 18.375 36.75 18.375ZM12.8625 13.125C12.8625 8.63625 16.5112 4.9875 21 4.9875C25.4888 4.9875 29.1375 8.63625 29.1375 13.125V18.375H12.8625V13.125ZM36.75 49.875H5.25V23.625H36.75V49.875Z" fill="white"/>
<path d="M30 43.087C30.5523 43.087 31 43.5347 31 44.087V46C31 46.5523 30.5523 47 30 47H12C11.4477 47 11 46.5523 11 46V43.4927C11 43.2325 11.1014 42.9826 11.2827 42.7959L21.1783 32.6099C21.7943 31.9758 21.345 30.913 20.4611 30.913H12.339C11.7867 30.913 11.339 30.4653 11.339 29.913V28C11.339 27.4477 11.7867 27 12.339 27H29.661C30.2133 27 30.661 27.4477 30.661 28V30.5073C30.661 30.7675 30.5596 31.0174 30.3783 31.2041L20.4827 41.3902C19.8668 42.0242 20.316 43.087 21.2 43.087H30Z" fill="white"/>
</svg>
