<svg width="590" height="322" viewBox="0 0 590 322" fill="none" xmlns="http://www.w3.org/2000/svg">
<path d="M312.409 107.37C286.93 35.2012 211.833 -13.3587 127.886 3.27509C66.467 15.6163 16.5812 64.7128 3.7074 126.151C-18.2853 229.978 60.5665 322 160.875 322C230.876 322 290.417 277.196 312.409 214.685H429.078V268.343C429.078 297.854 453.216 322 482.719 322C512.221 322 536.359 297.854 536.359 268.343V214.685C565.862 214.685 590 190.539 590 161.028C590 131.516 565.862 107.37 536.359 107.37H312.409ZM160.875 214.685C131.372 214.685 107.234 190.539 107.234 161.028C107.234 131.516 131.372 107.37 160.875 107.37C190.377 107.37 214.515 131.516 214.515 161.028C214.515 190.539 190.377 214.685 160.875 214.685Z" fill="black"/>
</svg>
