<svg width="512" height="513" viewBox="0 0 512 513" fill="none" xmlns="http://www.w3.org/2000/svg">
<path d="M97.7 1.52217C50.2 10.1222 11.8 47.9222 2.1 95.6222C0 105.522 0 108.322 0 255.922C0 403.522 0 406.322 2.1 416.222C11.9 464.522 50.4 502.022 98.9 510.422C111.8 512.722 400.6 512.622 413.6 510.422C462.5 501.822 501.9 462.422 510.5 413.522C511.8 405.822 512 385.222 512 255.222C512 108.322 512 105.522 509.9 95.6222C500.2 47.6222 461.5 9.82217 413.6 1.42217C405.9 0.122165 385.5 -0.077835 255.1 0.022165C130.7 0.122165 104.2 0.322165 97.7 1.52217ZM410.9 42.7222C415.5 43.9222 423.1 46.9222 427.9 49.4222C444.2 57.8222 455 68.9222 463 85.4222C472.1 104.222 471.5 91.8221 471.5 255.922C471.5 418.622 472 407.422 463.9 424.922C455.8 442.322 443.8 454.522 426.5 462.922C407.7 472.022 420.1 471.422 256 471.422C91.9 471.422 104.3 472.022 85.5 462.922C68.3 454.522 57.4 443.622 49 426.422C39.9 407.622 40.5 420.022 40.5 255.922C40.5 91.8221 39.9 104.222 49 85.4222C57.4 68.2222 68.3 57.3222 85.5 48.9222C95.2 44.2222 105.3 41.3222 115 40.6222C117.5 40.4222 183.2 40.3222 261 40.3222L402.5 40.5222L410.9 42.7222Z" fill="black"/>
<path d="M130.3 82.5222C127.9 83.9222 124.9 86.9222 123.5 89.3222C121.1 93.3222 121 94.4222 121 107.722V121.922H107.3C94.5 121.922 93.4 122.122 89.4 124.422C83.1 128.122 80 133.922 80 141.922C80 149.922 83.1 155.722 89.4 159.422C93.4 161.722 94.5 161.922 107.3 161.922H121V236.922H107.3C94.5 236.922 93.4 237.122 89.4 239.422C83.1 243.122 80 248.922 80 256.922C80 264.922 83.1 270.722 89.4 274.422C93.4 276.722 94.5 276.922 107.3 276.922H121V351.922H107.3C94.5 351.922 93.4 352.122 89.4 354.422C83.1 358.122 80 363.922 80 371.922C80 379.922 83.1 385.722 89.4 389.422C93.4 391.722 94.5 391.922 107.3 391.922H121V405.122C121 417.322 121.2 418.522 123.5 422.522C127.2 428.822 133 431.922 141 431.922C149 431.922 154.8 428.822 158.5 422.522C160.8 418.522 161 417.322 161 405.122V391.922H236V405.122C236 417.322 236.2 418.522 238.5 422.522C242.2 428.822 248 431.922 256 431.922C264 431.922 269.8 428.822 273.5 422.522C275.8 418.522 276 417.322 276 405.122V391.922H351V405.122C351 417.322 351.2 418.522 353.5 422.522C357.2 428.822 363 431.922 371 431.922C379 431.922 384.8 428.822 388.5 422.522C390.8 418.522 391 417.322 391 405.122V391.922H404.7C417.5 391.922 418.6 391.722 422.6 389.422C428.9 385.722 432 379.922 432 371.922C432 363.922 428.9 358.122 422.6 354.422C418.6 352.122 417.5 351.922 404.7 351.922H391V276.922H404.7C417.5 276.922 418.6 276.722 422.6 274.422C428.9 270.722 432 264.922 432 256.922C432 248.922 428.9 243.122 422.6 239.422C418.6 237.122 417.5 236.922 404.7 236.922H391V161.922H404.7C417.5 161.922 418.6 161.722 422.6 159.422C428.9 155.722 432 149.922 432 141.922C432 133.922 428.9 128.122 422.6 124.422C418.6 122.122 417.5 121.922 404.7 121.922H391V107.722C391 94.4222 390.9 93.3222 388.5 89.3222C384.8 83.0222 379 79.9222 371 79.9222C363 79.9222 357.2 83.0222 353.5 89.3222C351.1 93.3222 351 94.4222 351 107.722V121.922H276V107.722C276 94.4222 275.9 93.3222 273.5 89.3222C269.8 83.0222 264 79.9222 256 79.9222C248 79.9222 242.2 83.0222 238.5 89.3222C236.1 93.3222 236 94.4222 236 107.722V121.922H161V107.722C161 94.4222 160.9 93.3222 158.5 89.3222C154.8 83.0222 149 79.9222 140.9 79.9222C135.8 79.9222 133.6 80.4222 130.3 82.5222ZM236 236.922H161V161.922H236V236.922ZM351 236.922H276V161.922H351V236.922ZM236 351.922H161V276.922H236V351.922ZM351 351.922H276V276.922H351V351.922Z" fill="black"/>
</svg>
